<svg viewBox="0 0 12 12" fill="none" xmlns="http://www.w3.org/2000/svg">
<path d="M11.5745 0.43434C11.4092 0.26865 11.1848 0.175535 10.9507 0.175535C10.7167 0.175535 10.4922 0.26865 10.3269 0.43434L6.00002 4.75238L1.67313 0.425491C1.50782 0.259802 1.28338 0.166687 1.04932 0.166687C0.815262 0.166687 0.590821 0.259802 0.425504 0.425491C0.0804147 0.770581 0.0804147 1.32803 0.425504 1.67312L4.75239 6.00001L0.425504 10.3269C0.0804147 10.672 0.0804147 11.2294 0.425504 11.5745C0.770593 11.9196 1.32804 11.9196 1.67313 11.5745L6.00002 7.24765L10.3269 11.5745C10.672 11.9196 11.2294 11.9196 11.5745 11.5745C11.9196 11.2294 11.9196 10.672 11.5745 10.3269L7.24765 6.00001L11.5745 1.67312C11.9108 1.33688 11.9108 0.770581 11.5745 0.43434Z"/>
</svg>
